<?xml version="1.0" encoding="utf-8"?>
<COLLADA xmlns="http://www.collada.org/2005/11/COLLADASchema" version="1.4.1" xmlns:xsi="http://www.w3.org/2001/XMLSchema-instance">
  <asset>
    <contributor>
      <author>Blender User</author>
      <authoring_tool>Blender 4.0.2 commit date:2023-12-05, commit time:07:41, hash:9be62e85b727</authoring_tool>
    </contributor>
    <created>2024-03-11T18:48:36</created>
    <modified>2024-03-11T18:48:36</modified>
    <unit name="meter" meter="1"/>
    <up_axis>Z_UP</up_axis>
  </asset>
  <library_effects>
    <effect id="Material-effect">
      <profile_COMMON>
        <technique sid="common">
          <lambert>
            <emission>
              <color sid="emission">0 0 0 1</color>
            </emission>
            <diffuse>
              <color sid="diffuse">0.8 0.8 0.8 1</color>
            </diffuse>
            <index_of_refraction>
              <float sid="ior">1.45</float>
            </index_of_refraction>
          </lambert>
        </technique>
      </profile_COMMON>
    </effect>
  </library_effects>
  <library_images/>
  <library_materials>
    <material id="Material-material" name="Material">
      <instance_effect url="#Material-effect"/>
    </material>
  </library_materials>
  <library_geometries>
    <geometry id="Cube_030-mesh" name="Cube.030">
      <mesh>
        <source id="Cube_030-mesh-positions">
          <float_array id="Cube_030-mesh-positions-array" count="504">-0.9 -0.42 0.6588235 -0.9 -0.42 0.7088235 -0.9 0.42 0.6588235 -0.9 0.42 0.7088235 0.9 -0.42 0.6588235 0.9 -0.42 0.7088235 0.9 0.42 0.6588235 0.9 0.42 0.7088235 -0.6829765 0.03014475 0.06849539 -0.6829765 0.03014475 0.6677359 -0.6829765 0.1106127 0.06849539 -0.6829765 0.1106127 0.6677359 -0.6025086 0.03014475 0.06849539 -0.6025086 0.03014475 0.6677359 -0.6025086 0.1106127 0.06849539 -0.6025086 0.1106127 0.6677359 0.6829764 0.03014475 0.06849539 0.6829764 0.03014475 0.6677359 0.6829764 0.1106127 0.06849539 0.6829764 0.1106127 0.6677359 0.6025084 0.03014475 0.06849539 0.6025084 0.03014475 0.6677359 0.6025084 0.1106127 0.06849539 0.6025084 0.1106127 0.6677359 -0.6829765 -0.03014475 0.06849539 -0.6829765 -0.03014475 0.6677359 -0.6829765 -0.1106126 0.06849539 -0.6829765 -0.1106126 0.6677359 -0.6025085 -0.03014475 0.06849539 -0.6025085 -0.03014475 0.6677359 -0.6025085 -0.1106126 0.06849539 -0.6025085 -0.1106126 0.6677359 0.6829763 -0.03014475 0.06849539 0.6829763 -0.03014475 0.6677359 0.6829763 -0.1106126 0.06849539 0.6829763 -0.1106126 0.6677359 0.6025084 -0.03014475 0.06849539 0.6025084 -0.03014475 0.6677359 0.6025084 -0.1106126 0.06849539 0.6025084 -0.1106126 0.6677359 -0.7178426 -0.02437162 0.06790047 -0.7178426 -0.02437162 0.1613984 -0.7178426 0.02437162 0.06790047 -0.7178426 0.02437162 0.1613984 0.7178426 -0.02437162 0.06790047 0.7178426 -0.02437162 0.1613984 0.7178426 0.02437162 0.06790047 0.7178426 0.02437162 0.1613984 -0.6971713 -0.3051394 0.07720005 -0.6971713 0.3051394 0.07720005 -0.5875393 -0.3051394 0.07720005 -0.5875393 0.3051394 0.07720005 -0.6971713 0.1743004 0.02225446 -0.6971713 -0.1743004 0.02225446 -0.6971713 -0.1743004 0.07720005 -0.6971713 0.1743004 0.07720005 -0.5875393 -0.1743004 0.02225446 -0.5875393 0.1743004 0.02225446 -0.5875393 0.1743004 0.07720005 -0.5875393 -0.1743004 0.07720005 -0.6971713 -0.1743004 -0.00572884 -0.6971713 -0.3051394 -0.00572884 -0.5875393 0.3051394 -0.00572884 -0.6971713 0.3051394 -0.00572884 -0.5875393 0.1743004 -0.00572884 -0.5875393 -0.3051394 -0.00572884 -0.6971713 0.1743004 -0.00572884 -0.5875393 -0.1743004 -0.00572884 0.6971713 -0.3051394 0.07720005 0.6971713 0.3051394 0.07720005 0.5875393 -0.3051394 0.07720005 0.5875393 0.3051394 0.07720005 0.6971713 0.1743004 0.02225446 0.6971713 -0.1743004 0.02225446 0.6971713 -0.1743004 0.07720005 0.6971713 0.1743004 0.07720005 0.5875393 -0.1743004 0.02225446 0.5875393 0.1743004 0.02225446 0.5875393 0.1743004 0.07720005 0.5875393 -0.1743004 0.07720005 0.6971713 -0.1743004 -0.00572884 0.6971713 -0.3051394 -0.00572884 0.5875393 0.3051394 -0.00572884 0.6971713 0.3051394 -0.00572884 0.5875393 0.1743004 -0.00572884 0.5875393 -0.3051394 -0.00572884 0.6971713 0.1743004 -0.00572884 0.5875393 -0.1743004 -0.00572884 -0.6757767 0.08781528 0.0585103 -0.6757767 0.08781528 0.1928845 -0.6757767 0.2221894 0.0585103 -0.610508 0.08781528 0.0585103 -0.610508 0.08781528 0.1928845 -0.610508 0.2221894 0.0585103 -0.6757767 0.1408536 0.1815339 -0.6757767 0.210883 0.1115487 -0.6757767 0.1649489 0.135644 -0.610508 0.210883 0.1115487 -0.610508 0.1408536 0.1815339 -0.610508 0.1649489 0.135644 0.6757766 0.08781528 0.05851036 0.6757766 0.08781528 0.1928845 0.6757766 0.2221894 0.05851036 0.610508 0.08781528 0.05851036 0.610508 0.08781528 0.1928845 0.610508 0.2221894 0.05851036 0.6757766 0.1408536 0.1815339 0.6757766 0.2108829 0.1115487 0.6757766 0.1649489 0.135644 0.610508 0.2108829 0.1115487 0.610508 0.1408536 0.1815339 0.610508 0.1649489 0.135644 -0.6757767 -0.08781522 0.05851036 -0.6757767 -0.08781522 0.1928845 -0.6757767 -0.2221894 0.05851036 -0.610508 -0.08781522 0.05851036 -0.610508 -0.08781522 0.1928845 -0.610508 -0.2221894 0.05851036 -0.6757767 -0.1408536 0.1815339 -0.6757767 -0.2108829 0.1115487 -0.6757767 -0.1649489 0.135644 -0.610508 -0.2108829 0.1115487 -0.610508 -0.1408536 0.1815339 -0.610508 -0.1649489 0.135644 0.6757765 -0.08781522 0.05851036 0.6757765 -0.08781522 0.1928845 0.6757765 -0.2221894 0.05851036 0.6105079 -0.08781522 0.05851036 0.6105079 -0.08781522 0.1928845 0.6105079 -0.2221894 0.05851036 0.6757765 -0.1408536 0.1815339 0.6757765 -0.2108829 0.1115487 0.6757765 -0.1649489 0.135644 0.6105079 -0.2108829 0.1115487 0.6105079 -0.1408536 0.1815339 0.6105079 -0.1649489 0.135644 -0.6757767 0.08781528 0.5466036 -0.6757767 0.08781528 0.6809777 -0.610508 0.08781528 0.6809777 -0.6757767 0.2221894 0.6809777 -0.6757767 0.1835797 0.5852133 -0.610508 0.08781528 0.5466036 -0.610508 0.2221894 0.6809777 -0.610508 0.1835797 0.5852133 0.6757766 0.08781528 0.5466036 0.6757766 0.08781528 0.6809777 0.610508 0.08781528 0.6809777 0.6757766 0.2221894 0.6809777 0.6757766 0.1835797 0.5852133 0.610508 0.08781528 0.5466036 0.610508 0.2221894 0.6809777 0.610508 0.1835797 0.5852133 -0.6757767 -0.08781522 0.5466036 -0.6757767 -0.08781522 0.6809777 -0.610508 -0.08781522 0.6809777 -0.6757767 -0.2221894 0.6809777 -0.6757767 -0.1835797 0.5852133 -0.610508 -0.08781522 0.5466036 -0.610508 -0.2221894 0.6809777 -0.610508 -0.1835797 0.5852133 0.6757765 -0.08781522 0.5466036 0.6757765 -0.08781522 0.6809777 0.6105079 -0.08781522 0.6809777 0.6757765 -0.2221894 0.6809777 0.6757765 -0.1835797 0.5852133 0.6105079 -0.08781522 0.5466036 0.6105079 -0.2221894 0.6809777 0.6105079 -0.1835797 0.5852133</float_array>
          <technique_common>
            <accessor source="#Cube_030-mesh-positions-array" count="168" stride="3">
              <param name="X" type="float"/>
              <param name="Y" type="float"/>
              <param name="Z" type="float"/>
            </accessor>
          </technique_common>
        </source>
        <source id="Cube_030-mesh-normals">
          <float_array id="Cube_030-mesh-normals-array" count="453">-1 0 0 0 1 0 1 0 0 0 -1 0 0 0 -1 0 0 1 -1 2.9728e-7 0 -1 0 0 -1 5.9456e-7 0 -1 0 0 1 -2.58021e-7 0 -1 0 0 -1 -5.9456e-7 0 0 0 1 0 0 1 0 0 1 0 0 1 0 0 1 0 0 1 0 0 1 -1 0 0 1 5.18191e-7 0 1 3.0234e-7 0 1 2.9728e-7 0 0 0.9780244 0.2084909 0 0.9780243 0.2084909 0 0.9780244 0.2084906 1 2.58149e-7 0 1 1.35539e-7 0 -1 -4.79873e-7 0 0 0.8853729 0.4648816 0 0.8853729 0.4648816 0 0.4645317 0.8855566 0 0.4645317 0.8855565 0 0.2092677 0.9778584 0 0.2092677 0.9778584 0 0.2092676 0.9778584 0 0.9780244 0.2084909 0 0.9780243 0.2084909 -1 4.92823e-7 0 -1 2.73239e-7 0 1 -3.98035e-7 0 1 -2.15541e-6 0 1 -1.84872e-7 0 0 0.885373 0.4648814 0 0.8853731 0.4648813 0 0.4645322 0.8855562 0 0.4645323 0.8855562 0 0.4645321 0.8855563 0 0.2092679 0.9778584 0 0.2092679 0.9778584 0 -0.9780243 0.2084913 0 -0.9780243 0.2084913 0 -0.9780243 0.2084912 1 4.92823e-7 0 1 -1.39743e-7 0 -1 -3.09665e-7 0 -1 8.62165e-7 0 -1 2.71078e-7 0 0 -0.8853729 0.4648816 0 -0.8853729 0.4648816 0 -0.4645318 0.8855565 0 -0.4645318 0.8855565 0 -0.4645317 0.8855565 0 -0.2092677 0.9778585 0 -0.2092677 0.9778584 0 -0.2092676 0.9778584 0 -0.9780243 0.2084912 -1 0 0 1 -2.06634e-7 0 0 -0.8853728 0.4648817 0 -0.8853728 0.4648818 0 -0.8853726 0.464882 0 -0.4645323 0.8855562 0 -0.4645322 0.8855562 0 -0.464532 0.8855565 0 -0.2092679 0.9778584 0 -0.2092679 0.9778584 -1 -1.44747e-7 0 -1 -1.44747e-7 0 -1 -2.89494e-7 0 0 0.3739271 -0.9274582 0 0.3739269 -0.9274582 0 0.3739272 -0.9274582 0 0.9274582 -0.3739269 0 0.9274582 -0.3739269 -1 4.34242e-7 0 -1 4.34242e-7 0 -1 8.68483e-7 0 0 0.3739271 -0.9274581 0 0.3739269 -0.9274582 0 0.3739268 -0.9274583 0 0.9274582 -0.3739271 1 2.89494e-7 0 1 2.89494e-7 0 1 5.78989e-7 0 0 -0.3739268 -0.9274582 0 -0.3739269 -0.9274582 0 -0.3739271 -0.9274582 0 -0.9274582 -0.3739268 0 -0.9274582 -0.3739269 0 -0.9274582 -0.3739269 1 -2.89494e-7 0 1 -2.89494e-7 0 1 -5.78989e-7 0 0 -0.3739272 -0.9274581 0 -0.3739273 -0.9274581 0 -0.9274582 -0.3739272 0 -0.9274581 -0.3739273 -1 2.56433e-7 0 -1 4.66939e-7 0 1 -2.62318e-7 0 1 -5.18191e-7 0 -1 -5.12866e-7 0 0 0 1 1 5.18751e-7 0 0 0.9780243 0.2084912 1 5.41993e-7 0 1 1.72162e-6 0 1 4.31082e-7 0 -1 -3.59418e-7 0 -1 -1.03498e-6 0 -1 -1.72433e-6 0 0 0.2092679 0.9778584 -1 3.59418e-7 0 1 3.59418e-7 0 1 -1.08399e-6 0 1 -3.44324e-6 0 0 0.8853731 0.4648811 0 0.4645323 0.8855562 0 -0.9780243 0.2084916 1 -3.44324e-6 0 1 -1.08399e-6 0 1 3.59418e-7 0 -1 -1.08399e-6 0 -1 -3.44324e-6 0 0 -0.2092678 0.9778584 -1 -2.70997e-7 0 -1 -8.60811e-7 0 1 -5.42156e-7 0 1 -1.72433e-6 0 0 -0.8853729 0.4648816 0 -0.4645326 0.8855561 0 0.3739268 -0.9274583 0 0.9274582 -0.373927 0 0.3739273 -0.9274581 0 0.9274581 -0.3739271 0 -0.3739267 -0.9274583 0 -0.9274582 -0.3739268 0 -0.3739272 -0.9274582 0 -0.9274579 -0.3739275</float_array>
          <technique_common>
            <accessor source="#Cube_030-mesh-normals-array" count="151" stride="3">
              <param name="X" type="float"/>
              <param name="Y" type="float"/>
              <param name="Z" type="float"/>
            </accessor>
          </technique_common>
        </source>
        <source id="Cube_030-mesh-map-0">
          <float_array id="Cube_030-mesh-map-0-array" count="1344">0.9779718 0.8477504 0.9985242 0.5024703 0.9985242 0.8477504 0.3467603 0.7413654 0.3673127 0.001479327 0.3673127 0.7413654 0.7926055 0.9404544 0.8131579 0.5951742 0.8131579 0.9404544 0.8213317 0.7413654 0.841884 0.001479327 0.8418841 0.7413654 0.71555 0.7413654 0.3702698 0.001479268 0.71555 0.001479268 0.3467603 0.7413654 0.001480102 0.001479268 0.3467603 0.001479268 0.9419369 0.5064167 0.9750131 0.7527332 0.9419369 0.7527332 0.1456228 0.7450734 0.178699 0.99139 0.1456228 0.99139 0.9158442 0.2559229 0.9489204 0.5022395 0.9158442 0.5022395 0.1816576 0.7450734 0.2147338 0.99139 0.1816576 0.99139 0.9518905 0.2477918 0.9849666 0.001475334 0.9849666 0.2477918 0.1095848 0.99139 0.142661 0.7450734 0.142661 0.99139 0.9518857 0.4982913 0.9849619 0.2519748 0.9849619 0.4982913 0.2176914 0.99139 0.2507676 0.7450734 0.2507676 0.99139 0.3618338 0.99139 0.39491 0.7450734 0.39491 0.99139 0.9158556 0.2477992 0.9489318 0.001482605 0.9489318 0.2477992 0.001483857 0.99139 0.03456002 0.7450734 0.03456002 0.99139 0.3258003 0.9913887 0.3588765 0.7450721 0.3588765 0.9913887 0.2537339 0.7450734 0.2868101 0.99139 0.2537339 0.99139 0.2897677 0.7450734 0.3228438 0.99139 0.2897677 0.99139 0.0375176 0.7450734 0.07059377 0.99139 0.0375176 0.99139 0.07355129 0.7450734 0.1066275 0.99139 0.07355129 0.99139 0.8161159 0.7450788 0.8361517 0.783511 0.8161159 0.783511 0.7799404 0.5916147 0.8183725 0.001479268 0.8183725 0.5916147 0.8744687 0.7648019 0.8945044 0.8032341 0.8744687 0.8032341 0.7185094 0.5916147 0.7569416 0.001479268 0.7569416 0.5916147 0.7769775 0.5916147 0.7569416 0.001479268 0.7769775 0.001479268 0.8648743 0.5916147 0.8448384 0.001479268 0.8648743 0.001479268 0.9274694 0.7074294 0.9389719 0.7074294 0.9389719 0.7612105 0.7896456 0.5951734 0.7896456 0.6489545 0.778143 0.6489545 0.648289 0.9344235 0.6823768 0.9794874 0.648289 0.9794874 0.7555578 0.8460271 0.7555578 0.7922461 0.7781431 0.7922461 0.8678306 0.05526196 0.9128946 0.001480877 0.9128946 0.05526196 0.8678306 0.2523347 0.9128946 0.1985536 0.9128946 0.2523347 0.8678306 0.1985536 0.9128946 0.05526196 0.9128946 0.1985536 0.8448415 0.644485 0.8563441 0.689549 0.8448415 0.689549 0.4458921 0.8883652 0.4909561 0.7450735 0.4909561 0.8883652 0.9389719 0.5103567 0.9389719 0.5641378 0.9274694 0.5641378 0.9048842 0.7074294 0.9274694 0.5641378 0.9274694 0.7074294 0.7555578 0.7922461 0.778143 0.6489545 0.7781431 0.7922461 0.5419276 0.7988621 0.5869916 0.745081 0.5869916 0.7988621 0.5899456 0.7988558 0.6350097 0.7450746 0.6350097 0.7988558 0.9604564 0.7569066 0.9719589 0.8019707 0.9604564 0.8019707 0.8458923 0.9225944 0.8799801 0.9676584 0.8458923 0.9676584 0.7525993 0.5951734 0.7525993 0.6489545 0.7410967 0.6489545 0.8904178 0.707436 0.9019203 0.707436 0.9019203 0.7612171 0.7410967 0.7922461 0.7525993 0.7922461 0.7525993 0.8460271 0.8829346 0.9225901 0.9170224 0.9676541 0.8829346 0.9676541 0.8678253 0.2559211 0.9128893 0.3097022 0.8678253 0.3097022 0.8678253 0.4529939 0.9128893 0.5067749 0.8678253 0.5067749 0.8678253 0.3097022 0.9128893 0.4529939 0.8678253 0.4529939 0.8563441 0.6937941 0.8448416 0.7388581 0.8448416 0.6937941 0.397868 0.7450735 0.4429321 0.8883652 0.397868 0.8883652 0.6112467 0.9245659 0.6453345 0.9696299 0.6112467 0.9696299 0.7410967 0.7922461 0.7185115 0.6489545 0.7410967 0.6489545 0.8904178 0.707436 0.8678326 0.5641444 0.8904178 0.5641444 0.6379654 0.7450762 0.6830294 0.7988573 0.6379654 0.7988573 0.4939112 0.7450797 0.5389752 0.7988608 0.4939112 0.7988608 0.8563441 0.5951783 0.8448416 0.6402422 0.8448416 0.5951783 0.9019203 0.5103632 0.9019203 0.5641444 0.8904178 0.5641444 0.7596409 0.9318143 0.7864695 0.9538974 0.7596409 0.9538974 0.90608 0.8281226 0.9296085 0.8598282 0.8743743 0.8598282 0.5256157 0.8261594 0.5444967 0.8360638 0.5491442 0.8578651 0.7864695 0.8949763 0.7596409 0.9160826 0.7596409 0.8949763 0.7864695 0.9160826 0.7596409 0.9318143 0.7596409 0.9160826 0.5383727 0.8022783 0.5572884 0.8291068 0.5383727 0.8291068 0.5814628 0.9716491 0.6082913 0.949566 0.6082913 0.9716491 0.6095794 0.8065718 0.6313807 0.8112374 0.6412851 0.8301004 0.9257933 0.7827626 0.9356976 0.7638996 0.9574989 0.759234 0.6082913 0.9338343 0.5814628 0.912728 0.6082913 0.912728 0.6082913 0.949566 0.5814628 0.9338343 0.6082913 0.9338343 0.8648132 0.8890634 0.8458977 0.9158919 0.8458977 0.8890634 0.9623546 0.949922 0.9891831 0.9381381 0.9891831 0.949922 0.5513919 0.861805 0.5560575 0.8400037 0.5749204 0.8300994 0.9643439 0.8439095 0.9832069 0.8538138 0.9878725 0.8756151 0.9891831 0.9170142 0.9623546 0.9012858 0.9891831 0.9012858 0.9891831 0.9381381 0.9623546 0.9170142 0.9891831 0.9170142 0.9623546 0.8791971 0.9891831 0.9012858 0.9623546 0.9012858 0.5225651 0.9716689 0.5493937 0.9834529 0.5225651 0.9834529 0.8397108 0.7945959 0.8714165 0.7710673 0.8714165 0.8263016 0.6995421 0.8399582 0.7184231 0.8498625 0.7230706 0.8716638 0.5493937 0.9348167 0.5225651 0.9505451 0.5225651 0.9348167 0.5493937 0.9505451 0.5225651 0.9716689 0.5225651 0.9505451 0.5225651 0.9348167 0.5493937 0.912728 0.5493937 0.9348167 0.5332797 0.9047607 0.4939159 0.8653969 0.5491502 0.8653969 0.6117122 0.9213443 0.6510759 0.8819805 0.6669464 0.9213443 0.456753 0.9727745 0.4835816 0.9433361 0.4835816 0.9727745 0.456753 0.9433361 0.4835816 0.9008936 0.4835816 0.9433361 0.8161163 0.8858401 0.85548 0.8464764 0.8713505 0.8858401 0.76546 0.8889811 0.7260963 0.8496173 0.7813305 0.8496173 0.6859852 0.7875161 0.7128137 0.8169544 0.6859852 0.8169544 0.6859852 0.7450734 0.7128137 0.7875161 0.6859852 0.7875161 0.8743394 0.919368 0.9137032 0.8800042 0.9295736 0.919368 0.4372258 0.9402586 0.397862 0.9008948 0.4530963 0.9008948 0.8161088 0.9315017 0.8429374 0.9609401 0.8161088 0.9609401 0.8161088 0.8890591 0.8429374 0.9315017 0.8161088 0.9315017 0.5921761 0.9047585 0.5528124 0.8653947 0.6080465 0.8653947 0.669937 0.9311994 0.7093008 0.8918357 0.7251712 0.9311994 0.9325674 0.9510781 0.959396 0.9216397 0.959396 0.9510781 0.9325674 0.9216397 0.959396 0.8791971 0.959396 0.9216397 0.9779718 0.8477504 0.9779718 0.5024703 0.9985242 0.5024703 0.3467603 0.7413654 0.3467603 0.001479327 0.3673127 0.001479327 0.7926055 0.9404544 0.7926055 0.5951742 0.8131579 0.5951742 0.8213317 0.7413654 0.8213317 0.001479327 0.841884 0.001479327 0.71555 0.7413654 0.3702698 0.7413654 0.3702698 0.001479268 0.3467603 0.7413654 0.001480102 0.7413654 0.001480102 0.001479268 0.9419369 0.5064167 0.9750131 0.5064167 0.9750131 0.7527332 0.1456228 0.7450734 0.178699 0.7450734 0.178699 0.99139 0.9158442 0.2559229 0.9489204 0.2559229 0.9489204 0.5022395 0.1816576 0.7450734 0.2147338 0.7450734 0.2147338 0.99139 0.9518905 0.2477918 0.9518905 0.001475334 0.9849666 0.001475334 0.1095848 0.99139 0.1095848 0.7450734 0.142661 0.7450734 0.9518857 0.4982913 0.9518857 0.2519748 0.9849619 0.2519748 0.2176914 0.99139 0.2176914 0.7450734 0.2507676 0.7450734 0.3618338 0.99139 0.3618338 0.7450734 0.39491 0.7450734 0.9158556 0.2477992 0.9158556 0.001482605 0.9489318 0.001482605 0.001483857 0.99139 0.001483857 0.7450734 0.03456002 0.7450734 0.3258003 0.9913887 0.3258003 0.7450721 0.3588765 0.7450721 0.2537339 0.7450734 0.2868101 0.7450734 0.2868101 0.99139 0.2897677 0.7450734 0.3228438 0.7450734 0.3228438 0.99139 0.0375176 0.7450734 0.07059377 0.7450734 0.07059377 0.99139 0.07355129 0.7450734 0.1066275 0.7450734 0.1066275 0.99139 0.8161159 0.7450788 0.8361517 0.7450788 0.8361517 0.783511 0.7799404 0.5916147 0.7799404 0.001479268 0.8183725 0.001479268 0.8744687 0.7648019 0.8945044 0.7648019 0.8945044 0.8032341 0.7185094 0.5916147 0.7185094 0.001479268 0.7569416 0.001479268 0.7769775 0.5916147 0.7569416 0.5916147 0.7569416 0.001479268 0.8648743 0.5916147 0.8448385 0.5916147 0.8448384 0.001479268 0.9389719 0.7612105 0.9048842 0.7612105 0.9274694 0.7074294 0.9048842 0.7612105 0.9048842 0.7074294 0.9274694 0.7074294 0.778143 0.6489545 0.7555578 0.6489545 0.7555578 0.5951734 0.7555578 0.5951734 0.7896456 0.5951734 0.778143 0.6489545 0.648289 0.9344235 0.6823768 0.9344235 0.6823768 0.9794874 0.7781431 0.7922461 0.7896456 0.7922461 0.7896456 0.8460271 0.7896456 0.8460271 0.7555578 0.8460271 0.7781431 0.7922461 0.8678306 0.05526196 0.8678306 0.001480877 0.9128946 0.001480877 0.8678306 0.2523347 0.8678306 0.1985536 0.9128946 0.1985536 0.8678306 0.1985536 0.8678306 0.05526196 0.9128946 0.05526196 0.8448415 0.644485 0.8563441 0.644485 0.8563441 0.689549 0.4458921 0.8883652 0.4458921 0.7450735 0.4909561 0.7450735 0.9274694 0.5641378 0.9048842 0.5641378 0.9048842 0.5103567 0.9048842 0.5103567 0.9389719 0.5103567 0.9274694 0.5641378 0.9048842 0.7074294 0.9048842 0.5641378 0.9274694 0.5641378 0.7555578 0.7922461 0.7555578 0.6489545 0.778143 0.6489545 0.5419276 0.7988621 0.5419276 0.745081 0.5869916 0.745081 0.5899456 0.7988558 0.5899456 0.7450746 0.6350097 0.7450746 0.9604564 0.7569066 0.9719589 0.7569066 0.9719589 0.8019707 0.8458923 0.9225944 0.8799801 0.9225944 0.8799801 0.9676584 0.7410967 0.6489545 0.7185115 0.6489545 0.7185115 0.5951734 0.7185115 0.5951734 0.7525993 0.5951734 0.7410967 0.6489545 0.9019203 0.7612171 0.8678326 0.7612171 0.8904178 0.707436 0.8678326 0.7612171 0.8678326 0.707436 0.8904178 0.707436 0.7525993 0.8460271 0.7185115 0.8460271 0.7410967 0.7922461 0.7185115 0.8460271 0.7185115 0.7922461 0.7410967 0.7922461 0.8829346 0.9225901 0.9170224 0.92259 0.9170224 0.9676541 0.8678253 0.2559211 0.9128893 0.2559211 0.9128893 0.3097022 0.8678253 0.4529939 0.9128893 0.4529939 0.9128893 0.5067749 0.8678253 0.3097022 0.9128893 0.3097022 0.9128893 0.4529939 0.8563441 0.6937941 0.8563441 0.7388581 0.8448416 0.7388581 0.397868 0.7450735 0.4429321 0.7450735 0.4429321 0.8883652 0.6112467 0.9245659 0.6453345 0.9245659 0.6453345 0.9696299 0.7410967 0.7922461 0.7185115 0.7922461 0.7185115 0.6489545 0.8904178 0.707436 0.8678326 0.707436 0.8678326 0.5641444 0.6379654 0.7450762 0.6830294 0.7450762 0.6830294 0.7988573 0.4939112 0.7450797 0.5389752 0.7450797 0.5389752 0.7988608 0.8563441 0.5951783 0.8563441 0.6402422 0.8448416 0.6402422 0.8678326 0.5641444 0.8678326 0.5103632 0.8904178 0.5641444 0.8678326 0.5103632 0.9019203 0.5103632 0.8904178 0.5641444 0.7596409 0.9318143 0.7864695 0.9318143 0.7864695 0.9538974 0.8743743 0.8598282 0.8743743 0.804594 0.90608 0.8281226 0.8743743 0.804594 0.8961755 0.8092415 0.90608 0.8281226 0.90608 0.8281226 0.9249429 0.838027 0.9296085 0.8598282 0.5491442 0.8578651 0.49391 0.8578651 0.5256157 0.8261594 0.49391 0.8578651 0.49391 0.8026309 0.5256157 0.8261594 0.49391 0.8026309 0.5157113 0.8072965 0.5256157 0.8261594 0.7864695 0.8949763 0.7864695 0.9160826 0.7596409 0.9160826 0.7864695 0.9160826 0.7864695 0.9318143 0.7596409 0.9318143 0.5383727 0.8022783 0.5572884 0.8022783 0.5572884 0.8291068 0.5814628 0.9716491 0.5814628 0.949566 0.6082913 0.949566 0.6601661 0.8400048 0.6648136 0.861806 0.6412851 0.8301004 0.6648136 0.861806 0.6095794 0.861806 0.6412851 0.8301004 0.6095794 0.861806 0.6095794 0.8065718 0.6412851 0.8301004 0.9574989 0.759234 0.9574989 0.8144682 0.9257933 0.7827626 0.9574989 0.8144682 0.9022647 0.8144682 0.9257933 0.7827626 0.9022647 0.8144682 0.9069122 0.792667 0.9257933 0.7827626 0.6082913 0.9338343 0.5814628 0.9338343 0.5814628 0.912728 0.6082913 0.949566 0.5814628 0.949566 0.5814628 0.9338343 0.8648132 0.8890634 0.8648132 0.9158919 0.8458977 0.9158919 0.9623546 0.949922 0.9623546 0.9381381 0.9891831 0.9381381 0.5848248 0.8112184 0.6066262 0.8065708 0.5749204 0.8300994 0.6066262 0.8065708 0.6066262 0.861805 0.5749204 0.8300994 0.6066262 0.861805 0.5513919 0.861805 0.5749204 0.8300994 0.9878725 0.8756151 0.9326383 0.8756151 0.9643439 0.8439095 0.9326383 0.8756151 0.9326383 0.8203809 0.9643439 0.8439095 0.9326383 0.8203809 0.9544396 0.8250284 0.9643439 0.8439095 0.9891831 0.9170142 0.9623546 0.9170142 0.9623546 0.9012858 0.9891831 0.9381381 0.9623546 0.9381381 0.9623546 0.9170142 0.9623546 0.8791971 0.9891831 0.8791971 0.9891831 0.9012858 0.5225651 0.9716689 0.5493937 0.9716689 0.5493937 0.9834529 0.8714165 0.8263016 0.8161823 0.8263016 0.8397108 0.7945959 0.8161823 0.8263016 0.8208298 0.8045002 0.8397108 0.7945959 0.8397108 0.7945959 0.8496152 0.7757329 0.8714165 0.7710673 0.7230706 0.8716638 0.6678364 0.8716638 0.6995421 0.8399582 0.6678364 0.8716638 0.6678364 0.8164297 0.6995421 0.8399582 0.6678364 0.8164297 0.6896377 0.8210953 0.6995421 0.8399582 0.5493937 0.9348167 0.5493937 0.9505451 0.5225651 0.9505451 0.5493937 0.9505451 0.5493937 0.9716689 0.5225651 0.9716689 0.5225651 0.9348167 0.5225651 0.912728 0.5493937 0.912728 0.5332797 0.9047607 0.4939159 0.9206311 0.4939159 0.8653969 0.6117122 0.9213443 0.6117122 0.8661101 0.6510759 0.8819805 0.456753 0.9727745 0.456753 0.9433361 0.4835816 0.9433361 0.456753 0.9433361 0.456753 0.9008936 0.4835816 0.9008936 0.8161163 0.8858401 0.8161163 0.8306059 0.85548 0.8464764 0.76546 0.8889811 0.7260963 0.9048514 0.7260963 0.8496173 0.6859852 0.7875161 0.7128137 0.7875161 0.7128137 0.8169544 0.6859852 0.7450734 0.7128137 0.7450734 0.7128137 0.7875161 0.8743394 0.919368 0.8743394 0.8641338 0.9137032 0.8800042 0.4372258 0.9402586 0.397862 0.9561291 0.397862 0.9008948 0.8161088 0.9315017 0.8429374 0.9315017 0.8429374 0.9609401 0.8161088 0.8890591 0.8429374 0.8890591 0.8429374 0.9315017 0.5921761 0.9047585 0.5528124 0.9206289 0.5528124 0.8653947 0.669937 0.9311994 0.669937 0.8759652 0.7093008 0.8918357 0.9325674 0.9510781 0.9325674 0.9216397 0.959396 0.9216397 0.9325674 0.9216397 0.9325674 0.8791971 0.959396 0.8791971</float_array>
          <technique_common>
            <accessor source="#Cube_030-mesh-map-0-array" count="672" stride="2">
              <param name="S" type="float"/>
              <param name="T" type="float"/>
            </accessor>
          </technique_common>
        </source>
        <vertices id="Cube_030-mesh-vertices">
          <input semantic="POSITION" source="#Cube_030-mesh-positions"/>
        </vertices>
        <triangles material="Material-material" count="224">
          <input semantic="VERTEX" source="#Cube_030-mesh-vertices" offset="0"/>
          <input semantic="NORMAL" source="#Cube_030-mesh-normals" offset="1"/>
          <input semantic="TEXCOORD" source="#Cube_030-mesh-map-0" offset="2" set="0"/>
          <p>1 0 0 2 0 1 0 0 2 3 1 3 6 1 4 2 1 5 7 2 6 4 2 7 6 2 8 5 3 9 0 3 10 4 3 11 6 4 12 0 4 13 2 4 14 3 5 15 5 5 16 7 5 17 9 0 18 10 0 19 8 0 20 11 1 21 14 1 22 10 1 23 15 2 24 12 2 25 14 2 26 13 3 27 8 3 28 12 3 29 18 2 30 17 2 31 16 2 32 22 1 33 19 1 34 18 1 35 20 0 36 23 0 37 22 0 38 16 3 39 21 3 40 20 3 41 26 0 42 25 0 43 24 0 44 30 3 45 27 3 46 26 3 47 28 2 48 31 2 49 30 2 50 24 1 51 29 1 52 28 1 53 33 2 54 34 2 55 32 2 56 35 3 57 38 3 58 34 3 59 39 0 60 36 0 61 38 0 62 37 1 63 32 1 64 36 1 65 41 0 66 42 0 67 40 0 68 43 1 69 46 1 70 42 1 71 47 2 72 44 2 73 46 2 74 45 3 75 40 3 76 44 3 77 46 4 78 40 4 79 42 4 80 43 5 81 45 5 82 47 5 83 57 2 84 64 2 85 62 2 86 63 6 87 66 0 88 52 7 89 48 3 90 65 3 91 50 3 92 48 0 93 54 0 94 53 0 95 54 5 96 50 5 97 59 5 98 49 5 99 58 5 100 51 5 101 55 5 102 59 5 103 58 5 104 52 3 105 64 3 106 57 3 107 57 4 108 53 4 109 52 4 110 65 2 111 67 2 112 56 2 113 58 2 114 56 2 115 57 2 116 54 0 117 52 7 118 53 0 119 67 4 120 61 4 121 60 4 122 62 4 123 66 4 124 63 4 125 56 1 126 60 1 127 53 1 128 69 1 129 82 1 130 71 1 131 82 8 132 84 0 133 77 9 134 72 10 135 86 2 136 83 2 137 76 11 138 87 0 139 85 12 140 70 3 141 81 3 142 68 3 143 70 13 144 74 14 145 79 15 146 78 16 147 69 17 148 71 18 149 79 15 150 75 19 151 78 16 152 84 3 153 72 3 154 77 3 155 73 4 156 77 4 157 72 4 158 51 1 159 63 1 160 49 1 161 76 11 162 78 20 163 77 9 164 72 10 165 74 21 166 73 22 167 81 4 168 87 4 169 80 4 170 86 4 171 82 4 172 83 4 173 80 1 174 76 1 175 73 1 176 81 23 177 80 2 178 73 22 179 95 24 180 93 25 181 90 26 182 99 27 183 92 28 184 91 2 185 96 29 186 95 0 187 90 0 188 98 30 189 96 30 190 94 31 191 99 32 192 95 32 193 96 33 194 94 34 195 92 35 196 98 36 197 105 37 198 107 38 199 102 26 200 104 39 201 110 0 202 111 40 203 108 41 204 106 42 205 101 43 206 108 44 207 110 45 208 106 31 209 107 46 210 111 47 211 108 48 212 104 49 213 106 49 214 110 50 215 117 51 216 119 52 217 114 53 218 116 54 219 122 2 220 123 55 221 120 56 222 118 57 223 113 58 224 120 59 225 122 59 226 118 60 227 119 61 228 123 62 229 120 63 230 116 64 231 118 65 232 122 66 233 131 67 234 129 67 235 126 53 236 135 68 237 128 0 238 127 0 239 132 69 240 131 2 241 126 2 242 134 70 243 132 71 244 130 72 245 135 73 246 131 74 247 132 75 248 130 76 249 128 76 250 134 77 251 143 2 252 138 2 253 141 2 254 137 78 255 140 79 256 136 80 257 136 81 258 143 82 259 141 83 260 140 84 261 142 84 262 143 85 263 146 86 264 151 87 265 149 88 266 148 2 267 145 2 268 144 2 269 151 89 270 144 90 271 149 91 272 150 92 273 148 84 274 151 85 275 154 93 276 159 94 277 157 95 278 156 0 279 153 0 280 152 0 281 159 96 282 152 97 283 157 98 284 158 99 285 156 100 286 159 101 287 167 0 288 162 0 289 165 0 290 161 102 291 164 103 292 160 104 293 160 105 294 167 105 295 165 106 296 164 107 297 166 108 298 167 101 299 1 0 300 3 0 301 2 0 302 3 1 303 7 1 304 6 1 305 7 2 306 5 2 307 4 2 308 5 3 309 1 3 310 0 3 311 6 4 312 4 4 313 0 4 314 3 5 315 1 5 316 5 5 317 9 0 318 11 0 319 10 0 320 11 1 321 15 1 322 14 1 323 15 2 324 13 2 325 12 2 326 13 3 327 9 3 328 8 3 329 18 2 330 19 2 331 17 2 332 22 1 333 23 1 334 19 1 335 20 0 336 21 0 337 23 0 338 16 3 339 17 3 340 21 3 341 26 0 342 27 0 343 25 0 344 30 3 345 31 3 346 27 3 347 28 2 348 29 2 349 31 2 350 24 1 351 25 1 352 29 1 353 33 2 354 35 2 355 34 2 356 35 3 357 39 3 358 38 3 359 39 0 360 37 0 361 36 0 362 37 1 363 33 1 364 32 1 365 41 0 366 43 0 367 42 0 368 43 1 369 47 1 370 46 1 371 47 2 372 45 2 373 44 2 374 45 3 375 41 3 376 40 3 377 46 4 378 44 4 379 40 4 380 43 5 381 41 5 382 45 5 383 62 2 384 51 2 385 57 2 386 51 2 387 58 2 388 57 2 389 52 7 390 55 0 391 49 109 392 49 109 393 63 6 394 52 7 395 48 3 396 61 3 397 65 3 398 53 0 399 60 0 400 61 0 401 61 0 402 48 0 403 53 0 404 54 5 405 48 5 406 50 5 407 49 5 408 55 5 409 58 5 410 55 5 411 54 5 412 59 5 413 52 3 414 66 3 415 64 3 416 57 4 417 56 4 418 53 4 419 56 2 420 59 2 421 50 2 422 50 2 423 65 2 424 56 2 425 58 2 426 59 2 427 56 2 428 54 0 429 55 0 430 52 7 431 67 4 432 65 4 433 61 4 434 62 4 435 64 4 436 66 4 437 56 1 438 67 1 439 60 1 440 69 1 441 83 1 442 82 1 443 77 9 444 78 20 445 71 110 446 71 110 447 82 8 448 77 9 449 83 2 450 69 111 451 72 10 452 69 111 453 75 112 454 72 10 455 85 12 456 70 113 457 76 11 458 70 113 459 79 0 460 76 11 461 70 3 462 85 3 463 81 3 464 70 13 465 68 114 466 74 14 467 78 16 468 75 19 469 69 17 470 79 15 471 74 14 472 75 19 473 84 3 474 86 3 475 72 3 476 73 4 477 76 4 478 77 4 479 51 1 480 62 1 481 63 1 482 76 11 483 79 0 484 78 20 485 72 10 486 75 112 487 74 21 488 81 4 489 85 4 490 87 4 491 86 4 492 84 4 493 82 4 494 80 1 495 87 1 496 76 1 497 74 21 498 68 115 499 73 22 500 68 115 501 81 23 502 73 22 503 95 24 504 97 116 505 93 25 506 91 2 507 93 117 508 99 27 509 93 117 510 97 118 511 99 27 512 99 27 513 98 119 514 92 28 515 90 0 516 88 120 517 96 29 518 88 120 519 89 121 520 96 29 521 89 121 522 94 122 523 96 29 524 98 30 525 99 31 526 96 30 527 99 32 528 97 33 529 95 32 530 94 34 531 89 123 532 92 35 533 105 37 534 109 116 535 107 38 536 109 0 537 105 0 538 111 40 539 105 0 540 103 124 541 111 40 542 103 124 543 104 39 544 111 40 545 101 43 546 100 125 547 108 41 548 100 125 549 102 126 550 108 41 551 102 126 552 107 127 553 108 41 554 108 44 555 111 128 556 110 45 557 107 46 558 109 129 559 111 47 560 104 49 561 101 123 562 106 49 563 117 51 564 121 130 565 119 52 566 121 131 567 117 132 568 123 55 569 117 132 570 115 133 571 123 55 572 115 133 573 116 54 574 123 55 575 113 58 576 112 0 577 120 56 578 112 0 579 114 134 580 120 56 581 114 134 582 119 135 583 120 56 584 120 59 585 123 60 586 122 59 587 119 61 588 121 75 589 123 62 590 116 64 591 113 136 592 118 65 593 131 67 594 133 53 595 129 67 596 127 0 597 129 137 598 135 68 599 129 137 600 133 138 601 135 68 602 135 68 603 134 0 604 128 0 605 126 2 606 124 2 607 132 69 608 124 2 609 125 139 610 132 69 611 125 139 612 130 140 613 132 69 614 134 70 615 135 141 616 132 71 617 135 73 618 133 142 619 131 74 620 130 76 621 125 77 622 128 76 623 143 2 624 142 2 625 138 2 626 137 78 627 139 0 628 140 79 629 136 81 630 140 143 631 143 82 632 140 84 633 139 144 634 142 84 635 146 86 636 150 0 637 151 87 638 148 2 639 147 2 640 145 2 641 151 89 642 148 145 643 144 90 644 150 92 645 147 146 646 148 84 647 154 93 648 158 2 649 159 94 650 156 0 651 155 0 652 153 0 653 159 96 654 156 147 655 152 97 656 158 99 657 155 148 658 156 100 659 167 0 660 166 0 661 162 0 662 161 102 663 163 2 664 164 103 665 160 105 666 164 149 667 167 105 668 164 107 669 163 150 670 166 108 671</p>
        </triangles>
      </mesh>
    </geometry>
  </library_geometries>
  <library_visual_scenes>
    <visual_scene id="Scene" name="Scene">
      <node id="Ready_Table" name="Ready Table" type="NODE">
        <matrix sid="transform">1 0 0 0 0 1 0 0 0 0 1 0 0 0 0 1</matrix>
        <instance_geometry url="#Cube_030-mesh" name="Ready Table">
          <bind_material>
            <technique_common>
              <instance_material symbol="Material-material" target="#Material-material">
                <bind_vertex_input semantic="UVMap" input_semantic="TEXCOORD" input_set="0"/>
              </instance_material>
            </technique_common>
          </bind_material>
        </instance_geometry>
      </node>
    </visual_scene>
  </library_visual_scenes>
  <scene>
    <instance_visual_scene url="#Scene"/>
  </scene>
</COLLADA>